<?xml version="1.0" encoding="UTF-8" standalone="no"?>
<!-- Created with Inkscape (http://www.inkscape.org/) -->

<svg
   xmlns:dc="http://purl.org/dc/elements/1.1/"
   xmlns:cc="http://creativecommons.org/ns#"
   xmlns:rdf="http://www.w3.org/1999/02/22-rdf-syntax-ns#"
   xmlns:svg="http://www.w3.org/2000/svg"
   xmlns="http://www.w3.org/2000/svg"
   xmlns:sodipodi="http://sodipodi.sourceforge.net/DTD/sodipodi-0.dtd"
   xmlns:inkscape="http://www.inkscape.org/namespaces/inkscape"
   width="210mm"
   height="297mm"
   viewBox="0 0 210 297"
   version="1.1"
   id="svg4517"
   inkscape:version="0.92.3 (2405546, 2018-03-11)"
   sodipodi:docname="d.svg">
  <defs
     id="defs4511" />
  <sodipodi:namedview
     id="base"
     pagecolor="#ffffff"
     bordercolor="#666666"
     borderopacity="1.0"
     inkscape:pageopacity="0.0"
     inkscape:pageshadow="2"
     inkscape:zoom="0.42613932"
     inkscape:cx="60.498553"
     inkscape:cy="436.8716"
     inkscape:document-units="mm"
     inkscape:current-layer="layer1"
     showgrid="false"
     inkscape:window-width="1366"
     inkscape:window-height="745"
     inkscape:window-x="-8"
     inkscape:window-y="-8"
     inkscape:window-maximized="1" />
  <metadata
     id="metadata4514">
    <rdf:RDF>
      <cc:Work
         rdf:about="">
        <dc:format>image/svg+xml</dc:format>
        <dc:type
           rdf:resource="http://purl.org/dc/dcmitype/StillImage" />
        <dc:title></dc:title>
      </cc:Work>
    </rdf:RDF>
  </metadata>
  <g
     inkscape:label="Capa 1"
     inkscape:groupmode="layer"
     id="layer1">
    <path
       id="path4526"
       transform="scale(0.26458333)"
       style="fill:#000080;stroke-width:0.99999994"
       d="M 211.9707,108.28906 A 561.42707,458.56992 0 0 0 70.542969,123.98438 c -0.002,0.008 -0.0049,0.0155 -0.0039,0.0234 2.31e-4,0.003 9.41e-4,0.006 0.0039,0.01 0.002,0.002 0.0039,0.004 0.0039,0.008 -1.1e-5,0.009 -1.1e-5,0.0163 0,0.0254 v 0.0215 c -1.9e-5,0.0208 1.9e-5,0.0416 0,0.0625 -3e-5,0.023 -0.002,0.0473 -0.002,0.0703 -4.2e-5,0.0215 6.8e-5,0.043 0,0.0645 -7.2e-5,0.0189 1.17e-4,0.0375 0,0.0566 -1.32e-4,0.0197 2.3e-4,0.0388 0,0.0586 -2.19e-4,0.0196 4.27e-4,0.0408 0,0.0605 -4.12e-4,0.0178 0.001,0.0352 -0.002,0.0527 -6.81e-4,0.0144 -0.0047,0.0287 -0.0059,0.043 v 0.002 c 0.001,0.0132 -0.001,0.0276 0.002,0.041 1.4e-4,0.0121 9.41e-4,0.0234 0.0039,0.0352 9.98e-4,0.014 -0.001,0.0291 0.002,0.043 6.08e-4,0.0129 0.002,0.0243 0.002,0.0371 3.78e-4,0.0129 -2.12e-4,0.026 0,0.0391 1.81e-4,0.0129 0.002,0.0261 0.002,0.0391 1.21e-4,0.0132 -6.8e-5,0.026 0,0.0391 1.1e-5,0.002 -1.1e-5,0.004 0,0.006 7.9e-5,0.0162 -0.0079,0.0235 -0.0098,0.0371 1.71e-4,0.004 -2.02e-4,0.008 0,0.0117 7.11e-4,0.0246 0.0027,0.0498 0.0039,0.0742 9.98e-4,0.0227 0.0027,0.0456 0.0039,0.0684 9.3e-4,0.0257 -1.81e-4,0.0506 0,0.0762 v 0.0859 0.084 0.084 0.0781 0.0762 0.0762 0.0742 0.0742 0.0762 c -1.1e-5,0.0249 0,0.0493 0,0.0742 -1.1e-5,0.0246 0,0.0497 0,0.0742 -1.1e-5,0.0257 1.1e-5,0.0505 0,0.0762 -1.9e-5,0.0276 1.9e-5,0.0545 0,0.082 -3e-5,0.0299 3.8e-5,0.0601 0,0.0898 -4.9e-5,0.0317 6.8e-5,0.0639 0,0.0957 -6e-5,0.0234 1.4e-4,0.0469 0,0.0703 -1.51e-4,0.0234 -0.002,0.0468 -0.002,0.0703 -2.31e-4,0.0234 4.08e-4,0.0468 0,0.0703 -4.12e-4,0.0223 0.001,0.046 -0.002,0.0684 -8.13e-4,0.0234 0.001,0.045 -0.002,0.0684 -9.98e-4,0.0272 -0.004,0.055 -0.0059,0.082 -5.21e-4,0.008 0.001,0.0171 -0.002,0.0254 5.48e-4,0.003 0.002,0.005 0.002,0.008 0.002,0.011 0.0028,0.0219 0.0039,0.0332 9.42e-4,0.0117 -0.001,0.0234 0.002,0.0352 4.8e-4,0.0121 -2.8e-4,0.0228 0,0.0352 1.39e-4,0.011 -0.001,0.0222 0.002,0.0332 9.98e-4,0.0144 0.0027,0.0306 0.0039,0.0449 5.4e-4,0.0159 -3.1e-4,0.0313 0,0.0469 2.8e-4,0.0151 -1.81e-4,0.0299 0,0.0449 1.51e-4,0.014 0.002,0.0287 0.002,0.043 1.02e-4,0.0144 -4.9e-5,0.0306 0,0.0449 4.9e-5,0.0147 -3e-5,0.0283 0,0.043 3e-5,0.014 -1.9e-5,0.031 0,0.0449 1.1e-5,0.0132 -1.1e-5,0.0276 0,0.041 1.1e-5,0.0136 -1.1e-5,0.0253 0,0.0391 2.99e-4,0.008 0.001,0.0233 -0.002,0.0312 -5.71e-4,0.005 -0.0047,0.005 -0.0059,0.01 1.1e-5,9.9e-4 -3.8e-5,0.0106 0,0.0117 3.21e-4,0.0132 0.002,0.028 0.002,0.041 1.89e-4,0.0129 -1.14e-4,0.026 0,0.0391 1.09e-4,0.0129 -6.1e-5,0.0279 0,0.041 5.6e-5,0.014 -3e-5,0.0272 0,0.041 1.4e-4,0.0151 6.5e-4,0.0276 0,0.043 -7.64e-4,0.0151 0.001,0.0299 -0.002,0.0449 -5.98e-4,0.0148 -0.002,0.0303 -0.002,0.0449 -3.23e-4,0.0189 1.82e-4,0.0359 0,0.0547 -1.65e-4,0.0178 1.1e-4,0.0367 0,0.0547 -9.3e-5,0.017 -0.002,0.0336 -0.002,0.0508 -6e-5,0.0163 3.1e-5,0.0329 0,0.0488 -3e-5,0.0178 1.9e-5,0.0332 0,0.0508 -1.9e-5,0.017 1.2e-5,0.036 0,0.0527 -1.1e-5,0.0162 1.2e-5,0.031 0,0.0469 v 0.0508 0.0488 0.043 0.0449 0.041 c 1.59e-4,0.009 -0.001,0.0167 0.002,0.0254 2.12e-4,0.002 -0.002,0.01 -0.002,0.0117 8.81e-4,0.01 -0.001,0.0195 0.002,0.0293 0.003,0.0401 0.0059,0.0809 0.0078,0.12109 9.98e-4,0.0238 -0.001,0.0121 0.002,0.0352 0.001,0.0265 -0.0091,0.0374 -0.01367,0.0586 0.02646,0.16743 0.03307,0.34073 0.01758,0.51172 -0.001,0.0144 -0.05652,0.2923 -0.02734,0.18164 0.01928,0.1011 0.0098,0.38496 0.0098,0.54883 -0.002,0.24026 -6e-5,0.48043 0,0.7207 -1.7e-4,0.2233 -3.8e-5,0.44466 0,0.66797 3e-5,0.15099 0,0.30021 0,0.45117 v 0.66211 0.66211 0.66797 0.76953 0.63086 0.625 0.60547 0.65625 0.60742 0.66797 0.66992 0.64844 0.62695 0.56055 0.5 c 0,0.066 0.01361,0.13075 0,0.19531 -0.03137,0.14944 -0.07061,0.2952 -0.107422,0.44336 0.002,0.0151 -0.0013,0.005 0.0039,0.0371 0.0049,0.0531 0.0099,0.10495 0.01367,0.1582 0.02684,0.23267 -0.03743,0.45711 -0.113281,0.67383 0.02797,0.24469 0.01821,0.49256 0.01367,0.73828 0.002,0.20073 0.002,0.40082 0.002,0.60156 -9.3e-4,0.35848 -0.0798,0.63142 -0.185547,0.86329 v 0.0898 0.77539 1.55469 0.69531 0.75586 0.74414 1.03516 0.72461 0.65234 0.58203 0.94336 0.89063 0.72851 0.66016 0.85742 0.53711 0.53125 c 0.0042,0.0689 0.0091,0.1368 0,0.20703 v 0.23437 c 5.754403,-2.03898 11.854721,-3.28443 18.154297,-4.06835 1.158051,-0.0577 2.314309,-0.0832 3.46875,-0.0742 2.69322,0.0212 5.374855,0.22363 8.046875,0.53515 0.736399,-1.91814 1.640049,-4.24299 3.001949,-7.8457 7.38438,4.67408 16.99068,7.18992 23.72852,12.49219 0.80306,-0.24869 1.59349,-0.51401 2.34961,-0.82032 -0.53381,0.72347 -0.85327,1.16096 -1.26367,1.7168 0.41304,0.36262 0.81508,0.73612 1.20117,1.125 2.99902,1.01868 5.98072,2.0932 8.94531,3.20117 5.36618,2.23908 2.84134,1.13812 7.58789,3.27735 4.57882,2.06365 8.70261,4.30191 12.40625,6.66992 1.32217,-0.14756 2.70342,-0.24219 4.17969,-0.24219 h 0.002 21.42774 5 c 0.53572,0 1.11312,-0.17685 1.63867,-0.13281 0.17518,0.0147 0.3434,0.0545 0.50391,0.13281 1.86944,0.91193 3.68936,1.91935 5.49609,2.95117 2.02374,-0.89238 4.56863,-1.43945 7.66016,-1.43945 h 2.53515 3.72852 c 2.0013,-0.005 3.97852,0.23743 5.93359,0.64844 1.26701,0.26929 2.49751,0.67819 3.75586,0.98047 1.10132,0.24616 2.2195,0.41256 3.33008,0.61132 1.35795,0.21634 2.7038,0.4975 4.06055,0.72071 1.44373,0.29091 2.89527,0.54603 4.33984,0.83203 1.49204,0.27688 2.92864,0.77473 4.40039,1.13476 1.25193,0.27757 2.52595,0.43816 3.78906,0.6543 0.69058,0.12293 1.38094,0.2448 2.07227,0.36133 1.29752,0.01 2.59504,0.0176 3.89258,0.0293 3.07101,0.0283 6.14202,0.0615 9.21289,0.10742 3.03995,0.0462 6.07862,0.0886 9.11718,0.19531 1.97591,0.0832 3.95037,0.20159 5.92188,0.35938 2.12931,0.17624 4.25936,0.36817 6.37695,0.65625 2.32112,0.32368 4.64534,0.66547 6.91797,1.25 1.94642,0.49511 3.86604,1.07571 5.80078,1.61132 2.1058,0.58232 4.22969,1.0985 6.31055,1.76953 2.33934,0.7152 4.66113,1.49003 6.99805,2.2129 0.60575,0.19673 1.20804,0.40433 1.8125,0.60546 0.92354,0.0628 1.8474,0.12978 2.76953,0.21875 2.34659,0.2144 4.69252,0.45037 7.02929,0.75586 2.97423,0.38798 5.9466,0.80694 8.89063,1.38672 3.44572,0.70077 6.87674,1.47065 10.26172,2.42774 4.54715,1.26206 9.06828,2.61745 13.5039,4.23437 5.83209,2.08587 11.66156,4.21373 17.26758,6.86133 0.4127,0.19317 0.81928,0.39775 1.23047,0.59375 -0.40435,-1.77267 -0.0566,-2.95781 1.83594,-2.94531 0.86513,0.006 2.05115,0.26105 3.63281,0.82226 1.08212,0.38396 2.12977,0.85568 3.16797,1.34375 1.04814,0.46115 2.0825,0.9363 3.09961,1.46485 0.79442,0.48579 1.61447,0.92063 2.44922,1.33203 0.68371,0.30644 1.39213,0.55683 2.10351,0.79101 1.14958,0.35369 2.31188,0.66148 3.46875,0.99024 1.7093,0.47618 3.36154,1.12153 4.99414,1.81055 1.23946,0.51475 2.46649,1.0601 3.6875,1.61718 1.0732,0.46845 2.14596,0.93552 3.22071,1.40039 1.43418,0.54953 2.81021,1.22861 4.16797,1.94336 1.39476,0.69675 2.72196,1.50861 4.00976,2.38477 1.16924,0.80798 2.24749,1.73782 3.35156,2.63086 0.89919,0.71609 1.7895,1.44405 2.68555,2.16406 0.19956,0.0268 0.39738,0.0604 0.59766,0.084 2.7222,0.43476 5.44848,0.84954 8.16211,1.33594 2.25891,0.39123 4.51386,0.80728 6.77734,1.17188 1.86682,0.35554 3.73957,0.70652 5.53125,1.35937 1.20159,0.4317 2.39589,0.88329 3.63281,1.20899 2.09537,0.66986 4.16232,1.43422 6.15039,2.38086 2.07304,1.05859 4.04227,2.27379 5.90625,3.66992 1.90991,1.35976 3.77908,2.76638 5.50391,4.35937 1.62542,1.35788 3.30806,2.64595 5.0957,3.78516 2.04567,1.29268 4.12243,2.53376 6.17774,3.81055 1.80695,1.22942 3.62053,2.44974 5.35937,3.77539 1.59239,1.19634 3.18304,2.40431 4.8418,3.50586 1.1407,0.72294 2.39912,1.19122 3.68359,1.59765 2.25884,0.76883 4.56334,1.39277 6.85547,2.05274 2.62681,0.76706 5.28195,1.42986 7.89258,2.25 1.74202,0.60456 3.48753,1.2157 5.12891,2.0664 1.11087,0.56947 2.24172,1.07933 3.38476,1.58399 1.49299,0.71271 3.01136,1.3714 4.46289,2.16797 1.81633,0.97183 3.6771,1.86784 5.41602,2.97851 2.08399,1.3194 4.15774,2.65727 6.19336,4.05078 2.64775,1.76773 5.29774,3.55841 7.61523,5.75586 1.53279,1.52523 2.95358,3.14538 4.30469,4.83399 0.49285,0.60776 0.57601,0.81119 1.32226,1.2207 1.09119,0.69029 2.18464,1.37729 3.30274,2.02344 1.71651,0.93237 3.39419,1.94231 4.99414,3.06445 1.93826,1.3849 3.87934,2.79328 5.48828,4.56641 1.41445,1.52165 2.71947,3.13213 3.96484,4.79492 0.36171,0.48551 1.31363,1.7157 1.4043,1.96484 0.47101,0.64849 1.71803,1.15468 2.34766,1.68555 1.63234,0.96355 3.2695,1.91941 4.82617,3.00391 1.70661,1.206 3.37828,2.46254 5.00586,3.77343 1.70581,1.45403 3.30386,3.01124 4.75195,4.72461 0.96609,1.02977 1.90162,2.09228 2.91406,3.07617 0.978,0.84683 2.0172,1.60636 3.14063,2.25391 1.60838,1.01711 3.31139,1.87106 4.92187,2.88477 1.34155,0.95259 2.64983,1.94877 3.91797,2.99804 0.90773,0.79567 1.78674,1.62224 2.66211,2.45313 1.00309,0.88962 2.05686,1.71708 3.06055,2.60742 0.16668,0.15386 0.32807,0.31404 0.49414,0.46875 0.29858,-0.0447 0.59822,-0.0781 0.90039,-0.084 4.30885,-0.0846 8.83637,3.77061 9.7207,12.11524 0.0189,0.17215 0.0543,0.35769 0.10157,0.56836 0.25776,0.38527 0.47069,0.61643 0.70117,0.85742 -0.0934,-0.14291 1.1919,0.90201 1.39062,1.05274 0.95721,0.75291 1.89254,1.53354 2.79297,2.35351 1.19403,1.00001 2.24555,2.13538 3.22657,3.33789 0.52311,0.25094 1.04578,0.50392 1.57031,0.75195 2.01747,0.90077 3.85305,2.12445 5.68945,3.33789 1.64697,1.10321 3.20909,2.32556 4.70117,3.62891 1.31989,1.12233 2.46507,2.43011 3.58789,3.74414 1.13466,1.34831 2.10671,2.82446 2.99414,4.34375 0.34848,0.51625 0.68889,1.04083 1.11328,1.5 0.46746,0.53609 1.01837,0.96567 1.56836,1.41406 1.52448,1.17653 2.85785,2.52396 4.08204,4.00586 1.21897,1.58378 2.15433,3.34859 2.96875,5.16602 0.28384,0.63753 0.50961,1.29688 0.7207,1.96094 0.72582,0.90082 1.48961,1.76843 2.25391,2.63867 1.00613,1.07009 2.09438,2.05735 3.13867,3.08984 1.19845,1.21281 2.32471,2.49211 3.47656,3.74805 1.37624,1.47806 2.50677,3.14944 3.53125,4.88281 0.84688,1.49798 1.54353,3.07096 2.20703,4.65625 0.4916,1.17925 0.91378,2.38897 1.42383,3.56055 0.31975,0.78973 0.67536,1.569 1.13476,2.28906 0.61629,0.99126 1.24456,1.97594 1.86524,2.96485 0.67461,1.12758 1.3571,2.24715 2.07812,3.3457 1.07766,1.65271 2.03909,3.37735 2.94141,5.13086 0.45347,1.00509 1.05684,1.91719 1.70703,2.80273 1.31195,1.76825 2.3287,3.69856 3.14844,5.73633 0.61678,1.68438 1.1196,3.40818 1.63672,5.125 0.26532,0.89253 0.57748,1.76836 0.90429,2.63867 0.81797,1.069 1.51814,2.22568 2.12891,3.43555 0.80542,1.65309 1.33866,3.4103 1.76367,5.19336 0.32429,1.44215 0.51555,2.90733 0.76367,4.36328 0.002,0.0113 0.004,0.0219 0.008,0.0332 0.22412,0.51001 0.46852,1.01142 0.72851,1.50586 0.66422,1.0786 1.47975,2.05857 2.22266,3.08399 1.07611,1.60199 2.21285,3.1607 3.26953,4.77539 1.34736,2.07455 2.29113,4.36751 3.37109,6.58398 0.9481,1.89042 1.72968,3.855 2.49024,5.82617 0.63674,1.61813 1.14562,3.27973 1.64648,4.94336 0.54471,1.69992 0.90347,3.44768 1.27149,5.19141 0.20636,1.01824 0.41453,2.03479 0.64062,3.04883 0.52233,2.34252 0.64622,4.43276 0.47852,6.26953 0.51345,1.62009 0.92532,3.27238 1.36133,4.91406 0.50766,1.90851 0.91767,3.83964 1.36914,5.76172 0.43491,1.80971 0.76375,3.64156 1.05859,5.47852 0.27817,1.71703 0.45812,3.44813 0.61523,5.17968 0.14363,1.62251 0.23963,3.24863 0.32618,4.875 0.0752,1.4499 0.13162,2.90042 0.17773,4.35156 0.0624,1.46143 0.0385,2.92605 0.11524,4.38672 0.0227,1.39918 0.19804,2.77597 0.39257,4.15821 0.25361,1.74981 0.46138,3.50598 0.63282,5.26562 0.16932,1.80665 0.27597,3.61805 0.375,5.42969 0.0877,1.72981 0.14794,3.46031 0.20312,5.19141 0.0491,1.58143 0.0838,3.1642 0.11328,4.74609 0.0265,1.54624 0.0455,3.09237 0.0625,4.63867 0.0151,1.37869 0.0276,2.75795 0.0352,4.13672 0.008,1.34963 0.0138,2.69917 0.0176,4.04883 l 0.0117,4.48828 c 0.003,1.57466 0.008,3.14792 0.0117,4.72266 0.002,1.47678 0.0117,2.95483 0.0117,4.43164 8.7e-4,1.35035 0.002,2.70044 0.002,4.05078 5.6e-4,1.62641 0.002,3.25257 0.002,4.8789 2.6e-4,1.61934 -1.5e-4,3.23813 0,4.85743 1.5e-4,1.49745 -8e-5,2.99473 0,4.49218 7e-5,1.39329 -4e-5,2.78836 0,4.18164 v 4.22657 c 4e-5,1.38354 0,2.76686 0,4.15039 -10e-4,1.45032 0.014,2.89986 -0.0312,4.34961 -0.0431,1.32484 -0.18009,2.64457 -0.28516,3.96484 -0.14286,1.27336 -0.2937,2.54415 -0.50195,3.80859 -1.1503,6.98211 -4.64891,10.72511 -8.27344,11.62305 -0.034,0.96465 -0.0669,1.9295 -0.0918,2.89453 -0.002,1.41929 -0.0936,2.83177 -0.26368,4.24024 -0.22941,1.65736 -0.75804,3.2474 -1.19726,4.85547 -0.51568,1.75717 -1.25807,3.42967 -1.99024,5.10351 -0.54637,1.27865 -1.07187,2.56663 -1.61718,3.8457 -0.61097,1.37454 -1.39628,2.65934 -2.0879,3.99219 -0.24183,0.44207 -0.32087,0.92405 -0.43554,1.41406 -0.28271,1.38002 -0.57861,2.75742 -0.89258,4.13086 -0.3428,1.73783 -0.85329,3.43545 -1.38477,5.12305 -0.54326,1.4903 -1.12118,2.96899 -1.71093,4.44141 -0.45196,1.12298 -0.93792,2.23138 -1.39649,3.35156 -0.34242,0.86577 -0.68615,1.72988 -0.95703,2.62109 -0.41915,1.40005 -0.83231,2.79734 -1.33008,4.17188 -0.37228,0.89068 -0.7754,1.75823 -1.04492,2.68554 -0.30765,1.15811 -0.59513,2.32106 -0.89844,3.48047 -0.46125,1.72638 -1.08845,3.40137 -1.78906,5.04297 -0.55669,1.43947 -1.25481,2.81486 -2.0039,4.16211 -0.72511,1.37584 -1.60001,2.65782 -2.48438,3.9336 -0.78225,1.15241 -1.60698,2.27665 -2.35938,3.44921 -0.72497,1.20522 -1.47026,2.39796 -2.20507,3.59766 -0.71377,1.1176 -1.34544,2.28558 -1.98047,3.44922 -0.78267,1.33682 -1.57575,2.66842 -2.34375,4.01367 -0.7728,1.32933 -1.62695,2.60563 -2.49024,3.87695 -0.78595,1.13737 -1.69048,2.18467 -2.54492,3.26953 -0.72075,0.95086 -1.5869,1.77717 -2.36719,2.67579 v 0.01 c 0.0378,0.0763 -0.73847,1.46794 -0.77343,1.53711 -0.73901,1.29462 -1.41691,2.62402 -2.125,3.93555 -0.86106,1.62455 -1.88962,3.15221 -2.76953,4.76562 -0.97055,1.66337 -2.05093,3.26222 -3.21094,4.79883 -0.9089,1.21439 -1.94843,2.31659 -2.94531,3.45703 -0.95226,1.00165 -1.846,2.0583 -2.77149,3.08399 -3.3614,3.72537 -6.83604,5.45177 -9.83203,5.71679 -1.15442,2.5745 -2.40413,5.10785 -3.77734,7.58985 -6.29651,11.12126 -13.7124,21.4338 -23.3711,29.92187 -8.39183,7.18779 -17.44161,13.24064 -27.26562,18.125 -0.0616,0.52819 0.19957,0.79497 1.22851,0.42383 0.0227,-0.008 0.0637,-0.0453 0.0645,-0.0215 0.004,0.0227 -0.0413,0.0258 -0.0625,0.0371 -0.2041,0.1028 -0.41328,0.19866 -0.61328,0.31054 -0.30615,0.18104 -0.60225,0.37532 -0.89063,0.58399 -0.2948,0.22451 -0.58955,0.45027 -0.87891,0.68164 -0.34733,0.2812 -0.70483,0.54855 -1.07617,0.79687 -0.42629,0.28044 -0.88619,0.50092 -1.33984,0.73242 -0.27251,0.12887 -0.53308,0.27933 -0.78906,0.4375 -0.0726,0.0797 -0.12187,0.15854 -0.20313,0.23829 v 0.0117 c -0.1319,0.12849 -0.26648,0.25738 -0.38476,0.39844 -0.18067,0.23622 -0.37005,0.46495 -0.55079,0.70117 -0.53314,0.61791 -1.20034,1.09978 -1.88281,1.53907 -0.60718,0.36661 -1.23782,0.69208 -1.86133,1.02929 -0.52966,0.28082 -1.06241,0.55567 -1.58398,0.85157 -0.33033,0.17499 -0.63694,0.38723 -0.93945,0.60546 -0.2109,0.1489 -0.38671,0.33828 -0.57032,0.51758 -0.28535,0.28006 -0.57952,0.54891 -0.86718,0.82617 -0.26797,0.26759 -0.52462,0.54778 -0.78125,0.82618 -0.34848,0.37795 -0.71637,0.73353 -1.11133,1.0625 -0.41254,0.34016 -0.85377,0.63787 -1.32032,0.89843 -0.42423,0.22753 -0.85765,0.43725 -1.28124,0.66602 -0.39103,0.23433 -0.80089,0.43097 -1.20704,0.63672 -0.17196,0.10998 -0.35829,0.20384 -0.51953,0.33008 -0.0461,0.0378 -0.078,0.0885 -0.12109,0.1289 -0.40664,0.458 -0.86877,0.85349 -1.35742,1.22071 -0.6042,0.42682 -1.22788,0.8253 -1.85547,1.21679 -0.004,0.003 -0.008,0.008 -0.0156,0.0117 -0.47966,0.36434 -0.98155,0.69955 -1.49609,1.01367 -0.22148,0.13568 -0.45222,0.25589 -0.67773,0.38477 0.28681,0.95392 -0.25436,1.3965 -0.80469,1.91992 -0.29745,0.22867 -0.60636,0.4393 -0.92774,0.63281 -0.38562,0.24642 -0.76775,0.49814 -1.16211,0.73047 -0.25247,0.14664 -0.50685,0.29102 -0.76367,0.42969 -0.0113,0.008 -0.0258,0.0141 -0.0371,0.0254 -0.52199,0.39069 -1.09479,0.709 -1.66992,1.01367 -0.34242,0.1576 -0.64541,0.37268 -0.94531,0.59766 -0.39251,0.30539 -0.79832,0.58807 -1.22461,0.84375 -0.56988,0.32541 -1.16121,0.61098 -1.7461,0.9082 -0.53361,0.28422 -1.06263,0.57796 -1.5957,0.86328 -0.47369,0.28195 -0.97381,0.51265 -1.47656,0.73633 -0.45128,0.1988 -0.88896,0.42374 -1.32031,0.66211 -0.38835,0.22111 -0.76803,0.45287 -1.14844,0.6875 -0.19276,0.10923 -0.39599,0.19929 -0.5957,0.29492 -0.69956,0.5608 -1.45182,1.0459 -2.2168,1.51172 0.0797,0.25701 0.14783,0.49754 0.25781,0.80078 0.0265,0.068 -0.1315,0.0623 -0.19726,0.0918 -0.27818,0.13191 -0.56031,0.25581 -0.84571,0.37109 -0.39182,0.15345 -0.78276,0.308 -1.17383,0.46289 -0.27812,0.0952 -0.52247,0.24494 -0.76171,0.41211 -0.33865,0.25625 -0.66466,0.52754 -0.98633,0.80469 -0.39791,0.36813 -0.83315,0.69158 -1.2832,0.99219 -0.53243,0.37077 -1.09224,0.69462 -1.66211,1.0039 -0.91488,0.49946 -1.77315,1.09226 -2.62305,1.69336 -0.78909,0.56931 -1.55833,1.16427 -2.33203,1.75391 -0.62098,0.48367 -1.27867,0.91645 -1.94141,1.33984 -0.59898,0.38105 -1.2189,0.72258 -1.86523,1.01563 -0.58496,0.25739 -1.17107,0.51129 -1.75391,0.77344 -0.50332,0.21883 -0.99114,0.46899 -1.47852,0.7207 -0.0763,0.0378 -0.15727,0.0641 -0.23437,0.0996 -0.0302,0.0302 -0.0529,0.0655 -0.082,0.0957 -0.38933,0.39322 -0.82226,0.73743 -1.2461,1.0918 -0.36807,0.2982 -0.72793,0.60684 -1.0996,0.90039 -0.54252,0.41518 -1.16707,0.69702 -1.78321,0.98242 -0.54716,0.25738 -1.09834,0.50443 -1.64648,0.75977 -0.48359,0.21279 -0.95487,0.45236 -1.42969,0.68359 -0.45521,0.23282 -0.92198,0.44009 -1.39453,0.63477 -0.34923,0.14891 -0.69713,0.30159 -1.0332,0.47851 -0.31106,0.18065 -0.63003,0.34658 -0.94532,0.51953 -0.45384,0.24604 -0.92123,0.46391 -1.39257,0.67383 -0.49338,0.23584 -0.99506,0.45561 -1.47657,0.71484 -0.45456,0.23282 -0.8908,0.49861 -1.31445,0.78321 -0.36057,0.24453 -0.70554,0.5095 -1.04102,0.78711 -0.39167,0.34243 -0.82219,0.63606 -1.25586,0.92187 -0.5414,0.36396 -1.13046,0.64308 -1.7246,0.90821 -0.66448,0.28912 -1.337,0.55784 -2.01172,0.82226 -0.51908,0.18066 -1.01121,0.42402 -1.49219,0.6875 -0.40932,0.20371 -0.78398,0.45889 -1.14844,0.73242 -0.60771,0.46431 -1.28474,0.81355 -1.97265,1.14063 -0.75183,0.35829 -1.5048,0.71494 -2.26172,1.0625 -0.67416,0.29706 -1.33825,0.61573 -2,0.93945 -0.65329,0.2982 -1.29079,0.62445 -1.89453,1.01367 -0.66622,0.46896 -1.36749,0.88398 -2.08008,1.27735 -0.66871,0.37115 -1.37914,0.65392 -2.07813,0.96093 -0.75001,0.33486 -1.51211,0.63852 -2.27539,0.94141 -0.8934,0.34772 -1.78808,0.69242 -2.67578,1.05469 -0.64036,0.27703 -1.26587,0.5874 -1.87891,0.91992 -0.84778,0.46334 -1.68985,0.93704 -2.54296,1.39062 -1.22586,0.66522 -2.51917,1.19131 -3.79688,1.7461 -1.2545,0.55131 -2.49542,1.13275 -3.71484,1.75781 -0.85195,0.48177 -1.69375,0.98236 -2.56055,1.4375 -0.81468,0.42069 -1.66178,0.76549 -2.51758,1.0918 -0.54123,0.20939 -0.27517,0.10615 -0.80469,0.3125 -0.90901,0.35452 -1.67553,0.38123 -2.25781,0.20703 -0.50366,0.23207 -1.00093,0.47823 -1.50976,0.69922 -0.19843,0.0847 -0.39855,0.16647 -0.59766,0.25 -0.12472,0.0616 -0.24681,0.1293 -0.37305,0.1875 -0.50883,0.21883 -1.00626,0.46462 -1.49609,0.72265 -0.49553,0.2691 -0.99484,0.52746 -1.49219,0.79297 -0.45331,0.25058 -0.92013,0.4699 -1.40625,0.64844 -0.38283,0.12435 -0.76893,0.2385 -1.14844,0.37305 -0.40985,0.13871 -0.81696,0.28613 -1.22851,0.41992 -0.40018,0.12548 -0.78604,0.29064 -1.18164,0.42969 -0.37644,0.12208 -0.75499,0.23697 -1.13086,0.36132 -0.32958,0.12245 -0.67801,0.20267 -1.00195,0.33985 -0.32353,0.13985 -0.62926,0.31976 -0.93555,0.49414 -0.16781,0.10659 -0.0818,0.0504 -0.26172,0.16797 -0.88278,0.57611 -1.6772,0.73626 -2.30664,0.63867 -0.33222,0.24227 -0.66728,0.47781 -1.02539,0.68164 -0.56636,0.26608 -1.1399,0.51502 -1.70899,0.77539 -0.50838,0.22035 -0.99333,0.48489 -1.48437,0.74023 -0.50479,0.29102 -0.99074,0.61662 -1.48828,0.91993 -0.61928,0.36397 -1.24445,0.71912 -1.8711,1.07031 -0.52323,0.29178 -1.04905,0.57878 -1.57421,0.86719 -0.54577,0.32088 -1.11858,0.56817 -1.72266,0.7539 -0.88052,0.22072 -1.76858,0.40988 -2.65234,0.61719 -0.79805,0.16592 -1.58293,0.37985 -2.36329,0.61328 -0.74192,0.21883 -1.45434,0.52638 -2.1582,0.84375 -0.67423,0.31483 -1.34633,0.63009 -2.00586,0.97266 -0.66943,0.38471 -1.36303,0.72568 -2.0664,1.04297 -1.03571,0.4484 -2.09312,0.83721 -3.14844,1.23632 -1.03635,0.40558 -2.08894,0.7716 -3.14063,1.13477 -1.06991,0.35263 -2.126,0.74914 -3.17773,1.15234 -0.85845,0.32541 -1.67517,0.74501 -2.50391,1.13868 -0.70654,0.3205 -1.4288,0.60879 -2.14453,0.9082 -0.63027,0.26759 -1.26674,0.51425 -1.91015,0.74805 -0.63213,0.23735 -1.27373,0.45022 -1.91602,0.6582 -0.61198,0.18255 -1.21282,0.39915 -1.81055,0.62305 -0.50249,0.17197 -0.98518,0.39097 -1.46484,0.61718 -0.59305,0.28573 -1.17398,0.59225 -1.76563,0.88086 -0.70261,0.34053 -1.43907,0.60027 -2.17578,0.85547 -0.65582,0.21732 -1.32143,0.40491 -1.98633,0.5918 -0.53283,0.14892 -1.06189,0.31056 -1.59961,0.4414 -0.57889,0.11527 -1.15817,0.22741 -1.73632,0.34571 -0.27425,0.0571 -0.53155,0.0949 -0.77344,0.10547 -0.13266,0.10016 -0.2769,0.19652 -0.43359,0.29101 -0.37645,0.22677 -0.76848,0.42288 -1.18555,0.56446 -0.31786,0.1115 -0.63597,0.22098 -0.95313,0.33398 -0.28157,0.096 -0.56759,0.1746 -0.85351,0.25586 -0.2691,0.0699 -0.53932,0.14007 -0.8125,0.19336 -0.25021,0.0469 -0.49689,0.10724 -0.75,0.13672 -0.22349,0.0265 -0.44828,0.031 -0.67188,0.0234 -0.36,0.34129 -0.82057,0.6608 -1.40234,0.9336 -0.47063,0.22073 -0.97481,0.3658 -1.47266,0.51172 -0.58672,0.19427 -1.18544,0.34364 -1.78906,0.47656 -0.0825,0.0151 -0.16546,0.0303 -0.24805,0.0469 -0.0355,0.0302 -0.069,0.0698 -0.10547,0.10156 -0.27509,0.21732 -0.57453,0.3996 -0.86718,0.59179 -0.41328,0.27287 -0.83611,0.52509 -1.27539,0.75391 -0.60027,0.28988 -1.22052,0.53549 -1.83594,0.79102 -0.53813,0.23358 -1.07955,0.46414 -1.62891,0.66992 -0.64033,0.21203 -1.29622,0.37109 -1.94922,0.53906 -0.60184,0.17385 -1.20768,0.33338 -1.80273,0.5293 -0.5865,0.20107 -1.17302,0.40765 -1.75586,0.61914 -0.67331,0.25474 -1.37035,0.43717 -2.06836,0.60937 -0.10583,0.0264 -0.21253,0.0473 -0.31836,0.0723 -0.64426,0.15307 -1.1981,0.16501 -1.66406,0.0742 -0.49952,0.20334 -1.00756,0.38397 -1.52149,0.54687 -0.56458,0.18028 -1.14107,0.31595 -1.7207,0.4375 -0.0937,0.0227 -0.18526,0.0554 -0.2793,0.0781 -0.57432,0.13455 -1.15688,0.22866 -1.73632,0.33789 -0.53665,0.10242 -1.07888,0.17378 -1.61524,0.27734 -0.47693,0.096 -0.96063,0.14235 -1.43164,0.26367 -0.49632,0.12208 -0.99241,0.24518 -1.48828,0.36914 -0.4306,0.10091 -0.85577,0.22205 -1.27734,0.35547 -0.54734,0.19956 -1.07615,0.44335 -1.61328,0.66797 -0.63633,0.24604 -1.29589,0.43087 -1.9375,0.66406 -0.50907,0.18709 -1.01416,0.3865 -1.52735,0.5625 -0.50105,0.16781 -1.01394,0.29969 -1.51562,0.46485 -0.5946,0.20144 -1.19704,0.37576 -1.80664,0.52539 -0.40441,0.11868 -0.82421,0.13925 -1.24219,0.15625 -0.35906,0.0151 -0.68126,-0.0168 -0.98633,-0.0625 -0.4053,0.27174 -0.8124,0.5407 -1.23633,0.7832 -0.082,0.045 -0.16408,0.0917 -0.24609,0.13672 -1.91697,1.04999 -3.42558,0.7023 -4.08789,-0.18945 -0.22579,0.1406 -0.47383,0.2793 -0.75196,0.41211 -0.10732,0.051 -0.21848,0.0929 -0.32812,0.13867 0.21615,0.0711 0.50075,0.11628 0.94531,0.10156 0.44489,-0.0151 -0.71549,0.0821 -0.74414,0.084 -0.33449,0.034 -0.70166,0.10428 -1.0625,0.18554 -0.18795,0.0469 -0.37852,0.0834 -0.56836,0.12305 -0.23372,0.0699 -0.46729,0.14114 -0.69922,0.21484 -0.0808,0.0265 -0.16352,0.0334 -0.24414,0.0625 -0.23588,0.0881 -0.47251,0.17511 -0.70507,0.27149 -0.34016,0.14551 -0.66677,0.31523 -0.99415,0.48633 -0.53549,0.27515 -1.09054,0.5057 -1.66015,0.69921 -0.5898,0.19426 -1.20143,0.31104 -1.8125,0.41407 -0.57933,0.096 -1.16339,0.15562 -1.74805,0.20703 -0.45165,0.0661 -0.90641,0.11329 -1.35742,0.18359 -0.45332,0.0722 -0.90642,0.13641 -1.36133,0.19727 -0.47278,0.0631 -0.89278,0.0608 -1.28125,0.0234 -2.06732,0.83898 -4.13599,1.67637 -6.20117,2.51954 -2.47717,1.01141 -4.7366,1.51105 -6.75195,1.61914 h -0.002 c -0.0777,0.0401 -0.15765,0.0751 -0.24023,0.10156 -0.0499,0.0151 -0.10213,0.0263 -0.15234,0.043 -0.0529,0.0151 -0.10529,0.0285 -0.15821,0.041 -0.0722,0.0151 -0.0374,0.0101 -0.10742,0.0215 -0.0378,0.0113 -0.075,0.018 -0.11133,0.0293 -0.0378,0.0113 -0.0618,0.012 -0.0976,0.0195 -0.0393,0.0113 -0.0783,0.018 -0.11719,0.0293 -0.0714,0.0189 -0.14269,0.0445 -0.21485,0.0645 -0.0457,0.0113 -0.091,0.0102 -0.13671,0.0215 h -0.0156 c -0.0487,0.0151 -0.0977,0.0263 -0.14648,0.041 -0.0438,0.0113 -0.0874,0.0282 -0.13086,0.043 -0.0302,0.0113 -0.0619,0.0217 -0.0898,0.0293 -0.0378,0.0113 -0.0409,0.0144 -0.0977,0.0371 -0.0522,0.0227 -0.10454,0.0416 -0.15821,0.0586 -0.068,0.0227 -0.13868,0.0485 -0.20898,0.0625 -0.045,0.0113 -0.0894,0.0158 -0.13477,0.0195 -0.0548,0.0113 -0.11045,0.0121 -0.16601,0.0234 -0.034,0 -0.0687,0.0138 -0.10352,0.0176 -0.0567,0.0113 -0.11285,0.0118 -0.16992,0.0156 -0.0529,9.1e-4 -0.0808,0.0235 -0.13672,0.0273 -0.0563,0 -0.11245,0.01 -0.16797,0.0137 -0.0484,0 -0.0965,0.0161 -0.14453,0.0274 -0.0408,0 -0.0826,0.0139 -0.12304,0.0215 -0.0378,0 -0.0711,0.0195 -0.10743,0.0195 -0.034,0 -0.0647,0.0121 -0.10547,0.0234 -0.0968,0.0227 -0.19507,0.0417 -0.29296,0.0625 -0.0862,0.0151 -0.17164,0.0444 -0.25782,0.0644 -0.0639,0.0113 -0.12753,0.0101 -0.1914,0.0215 -0.0563,0.0113 -0.10514,0.018 -0.16407,0.0332 -0.0635,0.0151 -0.12791,0.022 -0.1914,0.0371 -0.076,0.0151 -0.15217,0.0263 -0.22852,0.041 -0.0847,0.0151 -0.16924,0.034 -0.2539,0.0469 -0.0635,0.0113 -0.12754,0.018 -0.19141,0.0293 -0.0525,0.0113 -0.10567,0.0139 -0.1582,0.0215 -0.004,5.8e-4 -0.008,0 -0.0117,0 h -0.008 c -0.0113,0.0113 -0.0219,0.0158 -0.0332,0.0195 -0.0113,0.0113 -0.0275,0.014 -0.0391,0.0215 -0.0113,0 -0.028,0.0177 -0.041,0.0215 -0.0113,0 -0.0254,0.002 -0.0371,0.0195 -0.0113,0 -0.0295,-9.4e-4 -0.041,0.0117 -0.0113,0 -0.0264,0.002 -0.0391,0.0195 h -0.0332 c -0.0113,9.1e-4 -0.0179,0 -0.0293,0 -0.008,6.8e-4 -0.0202,0 -0.0273,0 -0.0151,0 -0.0306,-5.4e-4 -0.043,0.0117 h -0.041 -0.0391 c -0.0113,0 -0.0219,8.9e-4 -0.0332,0 -0.008,8.1e-4 -0.0198,0 -0.0273,0 -0.0113,0 -0.0176,-0.002 -0.0293,0.01 h -0.0332 c -0.0136,0 -0.0272,0.0273 -0.041,0.0273 h -0.0176 c -0.006,0 -0.0115,-0.002 -0.0176,0.0137 -0.0113,0 -0.018,0.0234 -0.0293,0.0234 -0.0151,0 -0.0291,0.0195 -0.0449,0.0195 -0.004,8e-5 -0.01,1.9e-4 -0.0137,0 -0.003,-5.1e-4 -0.008,0 -0.0117,0 -0.0234,0.0113 -0.0468,0.0139 -0.0703,0.0215 -0.0238,0.0113 -0.05,0.0121 -0.0742,0.0234 -0.005,0 0.001,0.0176 -0.01,0.0176 -0.009,-1.7e-4 -0.0174,0 -0.0254,0 -0.003,7.2e-4 -0.005,0 -0.008,0 -0.0113,0 -0.0238,0.001 -0.0352,0.0195 -0.0151,0 -0.0253,0.0156 -0.0391,0.0156 -0.0151,0 -0.0302,0.0197 -0.0469,0.0234 -0.0189,0 -0.0405,0.01 -0.0605,0.0176 -0.0189,0 -0.0367,0.0197 -0.0547,0.0234 -0.0151,0 -0.031,-0.002 -0.0469,0.0176 -0.0151,0 -0.0291,-1.2e-4 -0.043,0.0195 -0.0113,0 -0.0275,0.0156 -0.0391,0.0156 -0.0113,0 -0.022,-0.001 -0.0371,0.0254 -0.0113,0 -0.026,7.8e-4 -0.0391,0.0195 -0.0113,0 -0.0283,6.3e-4 -0.041,0.0156 -0.0113,0 -0.0238,-7.4e-4 -0.0352,0.0215 h -0.0117 c -0.0113,0.0113 -0.0268,0.0159 -0.041,0.0234 -0.0151,0 -0.0303,0.0118 -0.0449,0.0156 -0.0113,0 -0.0268,-0.002 -0.0391,0.0176 -0.0113,0 -0.022,0.0234 -0.0371,0.0234 -0.008,0 -0.0198,3.9e-4 -0.0273,0.0195 -0.0113,0.0113 -0.022,0.0139 -0.0371,0.0215 -0.0151,0 -0.0303,0.0101 -0.0449,0.0176 -0.0189,0 -0.0352,0.0197 -0.0527,0.0234 -0.0151,0 -0.034,0.0102 -0.0488,0.0215 -0.0151,0.0113 -0.0303,0.014 -0.0488,0.0215 -0.0189,0.0113 -0.0382,0.0159 -0.0586,0.0234 -0.0227,0 -0.0456,0.0177 -0.0684,0.0215 -0.0227,0 -0.0436,0.0176 -0.0645,0.0176 -0.0151,0 -0.0298,0.0216 -0.043,0.0254 -0.002,7.4e-4 -0.004,0 -0.004,0 -0.0598,0.0265 -0.0978,10e-4 -0.10546,-0.0254 -0.21491,0.0839 -0.41125,0.12261 -0.57813,0.10938 -0.15878,0.0412 -0.31892,0.0771 -0.48047,0.10352 -0.20636,0.0302 -0.41084,0.0685 -0.61718,0.0996 -0.17991,0.0265 -0.35969,0.0697 -0.53907,0.0996 -0.10885,0.0189 -0.21763,0.0327 -0.32422,0.0625 -0.0937,0.0265 -0.18947,0.0524 -0.2832,0.0781 -0.0782,0.0189 -0.15374,0.0413 -0.23047,0.0625 -0.0627,0.0264 -0.12904,0.0327 -0.1914,0.0625 -0.0952,0.0401 -0.19357,0.0728 -0.29297,0.10156 -0.17197,0.0412 -0.34473,0.0732 -0.51758,0.11133 -0.14173,0.0302 -0.2821,0.0708 -0.42188,0.10937 -0.16781,0.0499 -0.33695,0.094 -0.50586,0.13672 -0.16327,0.0401 -0.32684,0.0749 -0.49218,0.10547 -0.11792,0.0189 -0.23755,0.0413 -0.35547,0.0625 -0.096,0.0189 -0.19153,0.0301 -0.28711,0.0527 -0.0899,0.0189 -0.18115,0.0467 -0.27149,0.0644 -0.0771,0.0151 -0.15494,0.016 -0.23242,0.0273 -0.0733,0.0113 -0.14505,0.0102 -0.21875,0.0215 -0.076,0 -0.15254,0.0159 -0.22851,0.0234 -0.0348,0 -0.0703,-0.001 -0.10547,0.0137 h -0.002 c -0.008,0 -0.0159,-1e-5 -0.0234,0.0195 h -0.0352 -0.0117 c -0.01,0 -0.0195,0.001 -0.0293,0.0234 -0.005,0 -0.006,0.01 -0.0117,0.0176 -0.0151,0.0113 -0.0321,0.0121 -0.0508,0.0234 -0.0227,0.0113 -0.0461,0.0121 -0.0703,0.0234 -0.0151,0 -0.0317,0.0137 -0.0469,0.0137 -0.0151,0 -0.0341,0.0197 -0.0488,0.0234 -0.0151,0 -0.0276,-10e-6 -0.043,0.0195 h -0.041 -0.0488 c -0.0113,7.2e-4 -0.0238,0 -0.0312,0 -0.0106,0 -0.0191,-5e-4 -0.0293,0.0215 -0.0121,8e-4 -0.0243,0.0195 -0.0371,0.0195 -0.0113,-1.9e-4 -0.0447,-4e-5 -0.0469,-0.0195 -6.5e-4,0 3.5e-4,-0.0215 0,-0.0215 -0.007,7.9e-4 -0.0129,0 -0.0234,0 -0.008,4.2e-4 -0.0159,0 -0.0234,0 h -0.0234 -0.0195 -0.0254 c -0.005,7.2e-4 -0.0107,0 -0.0156,0 -0.008,0 -0.0178,-5e-4 -0.0254,0.0215 h -0.0254 -0.0234 c -0.004,0 -0.008,6.8e-4 -0.0117,0 -0.005,0 -0.008,-9e-4 -0.0117,0 h -0.01 c -0.0151,0 -0.0333,0.0158 -0.0449,0.0195 -0.0151,0.0113 -0.0333,0.0121 -0.0488,0.0234 -0.0113,0.0113 -0.0199,0.0138 -0.0313,0.0176 -0.0125,0.0113 -0.0164,0 -0.0273,0 -0.004,0 -0.006,7.8e-4 -0.01,0.0195 -0.008,0 -0.0178,0.0197 -0.0254,0.0234 -0.0466,0.0189 -0.0852,0.0215 -0.11328,0.0215 h -0.0117 c -0.0227,0.0151 -0.0467,0.0199 -0.0703,0.0312 -0.0151,0.0113 -0.0332,0.01 -0.0508,0.0176 -0.0151,0 -0.0268,0.0197 -0.041,0.0234 -0.0113,0 -0.0219,9.6e-4 -0.0332,0.0234 h -0.0293 c -0.0113,3e-4 -0.018,0 -0.0293,0 -0.0113,1.1e-4 -0.0217,0 -0.0293,0 h -0.0254 -0.0195 c -0.002,3e-4 -0.01,-1.9e-4 -0.0117,0 -0.002,0 -0.008,-0.002 -0.01,0.0176 -0.0113,0.0113 -0.018,0.0121 -0.0293,0.0234 -0.0113,0 -0.0258,0.0195 -0.0371,0.0195 h -0.0293 c -0.0113,7.2e-4 -0.0219,0 -0.0332,0 -0.003,1.2e-4 -0.009,-1.1e-4 -0.0117,0 -0.001,4.2e-4 -0.009,0 -0.01,0 -0.0302,0.0113 -0.0557,0.0102 -0.084,0.0215 -0.0265,0.0113 -0.0527,0.0121 -0.0781,0.0234 -0.0227,0 -0.0472,0.0254 -0.0703,0.0254 -0.0302,0 -0.0582,0.0195 -0.0879,0.0195 -0.0159,0 -0.0306,7.8e-4 -0.0469,0.0195 -0.009,0 -0.0209,0.0101 -0.0293,0.0215 -0.0189,0.0113 -0.0389,0.0158 -0.0566,0.0195 -0.0189,0 -0.0333,0.0195 -0.0508,0.0195 h -0.041 c -0.001,3e-4 -0.0107,0 -0.0117,0 -0.0144,0 -0.0272,0.0139 -0.041,0.0215 -0.0113,0 -0.008,3.6e-4 -0.0195,0.0234 -0.0253,0.0113 -0.0419,0.0176 -0.0625,0.0176 -0.008,0 -0.0135,0.0159 -0.0215,0.0234 h -0.008 c 0.003,0.0151 -0.009,0.0448 -0.043,0.0527 -0.004,9e-4 -0.008,0 -0.0117,0 -0.0265,0.0113 -0.0502,0.0159 -0.0762,0.0234 -0.034,0 -0.0625,0.0101 -0.0957,0.0215 -0.034,0.0113 -0.0738,0.0158 -0.10938,0.0195 -0.034,0.0113 -0.0691,0.016 -0.10351,0.0273 -0.0189,0 -0.0381,0.0138 -0.0547,0.0176 -0.0151,0 -0.0321,0.0234 -0.0469,0.0234 -0.0227,0 -0.0448,0.0158 -0.0664,0.0195 -0.0227,0 -0.0461,0.0101 -0.0684,0.0215 -0.0151,0 -0.0302,0.0156 -0.0469,0.0156 -0.0189,0 -0.0389,0.014 -0.0586,0.0254 -0.0227,0.0113 -0.0457,0.0159 -0.0684,0.0234 -0.0227,0 -0.0469,0.0158 -0.0703,0.0195 -0.0227,0.0113 -0.0481,0.0178 -0.0723,0.0254 -0.0227,0 -0.0457,0.012 -0.0684,0.0195 -0.0189,0 -0.0378,0.0157 -0.0566,0.0195 -0.0227,0 -0.0469,0.0215 -0.0703,0.0215 -0.0189,0 -0.0378,0.0234 -0.0566,0.0234 -0.0189,0 -0.0381,0.002 -0.0547,0.0234 -0.0151,0 -0.0294,0.0139 -0.0469,0.0215 -0.0189,0 -0.0355,0.0157 -0.0547,0.0195 -0.0227,0 -0.0452,0.0139 -0.0684,0.0215 -0.0227,0 -0.0473,0.0121 -0.0703,0.0234 -0.0227,0.0113 -0.041,0.0121 -0.0625,0.0234 -0.0151,0 -0.0355,0.0139 -0.0508,0.0215 -0.0151,0 -0.0295,4.7e-4 -0.0449,0.0234 h -0.041 c -0.0113,7.9e-4 -0.0236,0 -0.0352,0 h -0.0332 c -0.0113,0 -0.0239,-0.001 -0.0352,0.0215 -0.0113,0 -0.0214,0.0195 -0.0293,0.0195 -0.0151,0.0113 -0.0351,0.0234 -0.0508,0.0234 h -0.0371 c -0.008,1.9e-4 -0.0178,0 -0.0254,0 h -0.0274 -0.0273 -0.0215 -0.0234 -0.002 c -0.0592,0.0189 -0.11821,0.0413 -0.17773,0.0625 -0.74226,0.21884 -1.50192,0.36851 -2.26367,0.5 -0.62982,0.10243 -1.26037,0.19262 -1.89453,0.26367 -0.65637,0.0699 -1.31547,0.11102 -1.97461,0.14844 -0.62389,0.034 -1.24857,0.0449 -1.87305,0.0644 -0.60129,0.0189 -1.20322,0.0523 -1.80469,0.0625 -0.55771,0.0189 -1.11665,9.7e-4 -1.67383,0.0234 -0.45871,0.0265 -0.9177,0.0779 -1.37109,0.15235 -0.33147,0.0419 -0.64808,0.14694 -0.9668,0.24218 -0.96981,0.28989 -1.78241,0.29521 -2.43359,0.12891 -0.34946,0.093 -0.69969,0.18241 -1.04883,0.27539 -1.7896,0.48291 -3.59955,0.87071 -5.41992,1.2168 -1.89074,0.38097 -3.79163,0.71119 -5.69727,1.00781 -1.58278,0.2332 -3.16304,0.49488 -4.74609,0.72656 -1.1507,0.15156 -2.29705,0.32546 -3.44531,0.49414 -0.92254,0.13455 -1.84859,0.24164 -2.77539,0.3418 -0.77662,0.0869 -1.55611,0.15355 -2.33594,0.20117 -0.80903,0.0389 -1.61148,0.15765 -2.41602,0.2461 -0.78708,0.0869 -1.57581,0.15556 -2.36523,0.21679 -0.62802,0.0408 -1.25237,0.11317 -1.875,0.20313 -0.58847,0.085 -1.17341,0.19382 -1.75586,0.3125 -0.58575,0.12019 -1.17022,0.25511 -1.75195,0.39258 -0.50442,0.16818 -1.00855,0.33679 -1.50782,0.51953 -0.35868,0.12283 -0.70589,0.2721 -1.04687,0.4375 -2.16787,1.05089 -3.75924,0.4324 -4.23438,-0.69141 -0.51302,0.33147 -1.19265,0.58258 -2.06054,0.6875 -0.37001,0.045 -0.18539,0.0137 -0.5586,0.0625 -0.5888,0.0771 -1.17682,0.15002 -1.76757,0.20899 -0.63455,0.079 -1.2658,0.17731 -1.89844,0.26953 -0.67049,0.0779 -1.34126,0.1649 -2.00781,0.27148 -0.52092,0.0699 -1.03611,0.1707 -1.54883,0.28711 -0.66788,0.15118 -1.33933,0.28404 -2.01953,0.36719 -0.65722,0.10129 -1.317,0.1799 -1.97266,0.29101 -0.61244,0.10999 -1.22446,0.2167 -1.83398,0.3418 -0.45938,0.0809 -0.91771,0.1748 -1.36524,0.30859 -0.65723,0.18218 -1.32367,0.33827 -1.99805,0.44141 -0.72117,0.0911 -1.44355,0.10193 -2.16992,0.0996 -0.56398,0.0113 -1.12758,0.0122 -1.6914,0.0273 -0.52082,0.0151 -1.04185,0.0425 -1.5625,0.0645 -0.62087,0.0189 -1.24111,0.0239 -1.86133,-0.0215 -0.5885,-0.0302 -1.17669,-0.0599 -1.76367,-0.11133 -0.0646,-0.0113 -0.1288,-0.012 -0.19336,-0.0195 -0.18047,0.14362 -0.43823,0.28423 -0.8711,0.41602 -0.4645,0.14135 -0.94711,0.21221 -1.42578,0.28515 -0.37115,0.045 -0.73854,0.10359 -1.10742,0.16407 -0.40591,0.0718 -0.81508,0.12891 -1.22461,0.17578 -0.43725,0.051 -0.87508,0.079 -1.31445,0.10351 -0.209,0.0113 -0.4198,0.0102 -0.62891,0.0215 -1.11437,0.051 -1.96816,-0.18179 -2.57226,-0.5625 -3.2416,3.868 -8.15331,4.14915 -11.61133,0.85351 -0.65254,0.38673 -0.98522,0.35025 -1.11328,0.0274 -1.39839,0.57898 -3.11552,-0.58683 -3.01368,-3.44922 0.002,-0.0491 0.004,-0.097 0.004,-0.14649 0.0113,-0.3239 0.0264,-0.65108 0.0469,-0.97461 0.0227,-0.32461 0.0521,-0.64717 0.0898,-0.9707 0.003,-0.0302 0.042,-0.70136 0.0586,-0.375 0.002,0.0302 0,-0.0698 0,-0.10156 0,-0.62461 0.0868,-1.16463 0.23047,-1.62305 -0.22484,-1.29777 -0.34486,-2.71608 -0.33008,-4.26758 0.004,-0.39201 0.004,-0.17879 0.006,-0.63671 0.008,-1.44881 0.0142,-2.898 0.0254,-4.34571 0.0113,-1.73631 0.0276,-3.47286 0.0469,-5.20898 0.0227,-1.6636 0.0473,-3.32867 0.082,-4.99219 0.0378,-1.69648 0.0788,-3.39025 0.14453,-5.08594 0.0386,-1.0323 0.0986,-2.06412 0.14844,-3.0957 -34.98965,-5.78593 -44.73649,-36.28809 -24.32422,-57.09375 -0.61823,-2.87766 -1.13536,-5.89483 -1.52539,-9.07617 -0.77609,-6.33037 -1.27409,-12.6901 -1.71875,-19.05078 -0.67653,-9.35131 -0.88042,-18.72704 -1.09375,-28.09766 -0.26797,-13.12811 -0.42645,-26.25882 -0.58008,-39.38867 -0.19351,-12.55899 -0.33145,-25.10999 0.10547,-37.66406 0.57154,-11.77871 0.95907,-23.56225 1.29492,-35.34961 0.33712,-12.07072 0.59313,-24.14344 0.8125,-36.2168 0.0227,-11.87331 0.63863,-23.73178 1.74414,-35.55078 1.11808,-12.13467 3.90222,-24.04102 6.94141,-35.81641 2.20735,-7.95919 3.77803,-16.06438 5.15625,-24.20117 1.3287,-7.61597 2.27155,-15.28719 3.04687,-22.97656 0.81918,-9.06584 1.39821,-18.14598 2.31641,-27.20313 1.35578,-10.4025 3.0349,-20.75786 4.70508,-31.11328 0.68112,-3.32942 1.38767,-6.65201 2.08789,-9.97656 -2.78248,-6.15436 -4.23213,-12.5939 -5.59375,-19.99414 -4.05469,-22.03669 -0.22927,-38.70503 7.47656,-49.31836 -0.23207,-5.26205 0.27794,-10.54855 0.2793,-15.82031 0.003,-12.09848 -0.14884,-24.20686 -0.73633,-36.29297 -7.15518,1.60812 -14.37962,2.92977 -21.60547,4.16992 -14.2007,2.77098 -28.45068,3.89141 -42.88867,3.16211 -10.251686,-0.76784 -20.171836,-3.28924 -29.853516,-6.56445 -0.0049,0.38518 -0.0098,0.73421 -0.0098,1.2207 1.5e-4,0.82422 0,1.64844 0,2.47266 1.8e-5,0.62136 0,1.2439 0,1.86523 v 2.49609 2.1875 1.78711 2.36328 2.69727 2.11914 1.6582 1.66016 3.18945 0.81055 c 0.152096,0.5118 0.270585,1.06672 0.359375,1.65625 0.593062,1.41314 0.955078,3.16984 0.955078,5.28711 v 1.9043 2.25 2.34179 c 0.0064,1.03612 -0.07659,2.06978 -0.136719,3.10352 -0.05654,0.95146 -0.0834,1.9045 -0.146484,2.85547 -0.07914,0.92957 -0.163962,1.85831 -0.228516,2.78906 -0.05881,0.87749 -0.100774,1.7561 -0.136718,2.63477 -0.03515,0.96 -0.05813,1.92048 -0.07813,2.88086 -0.01965,0.97843 -0.03294,1.95698 -0.04492,2.93554 -0.01134,0.89178 -0.01859,1.78397 -0.02539,2.67578 -0.0068,0.91813 -0.01027,1.83575 -0.01367,2.75391 0.0083,0.77987 -0.04205,1.55785 -0.08789,2.33594 -0.134679,2.28589 -0.663733,4.12951 -1.431641,5.55273 0.05895,0.38889 0.103899,0.77978 0.167969,1.16797 0.127671,0.93071 0.275453,1.85673 0.429687,2.7832 0.133266,0.72764 0.235,1.46044 0.333985,2.19336 0.182417,1.35041 0.191752,2.56756 0.07422,3.66407 0.925347,3.6975 -0.08683,7.90336 -0.109374,11.55468 0.01663,-0.16819 0.0246,-0.33636 0.04883,-0.5039 0.083,-0.57536 0.04697,1.16097 0.05664,1.74218 0.02646,1.55929 0.02822,3.11838 0.01953,4.67774 -0.02343,2.40642 -0.01361,4.81221 -0.01172,7.21875 -1.51e-4,0.30274 1.1e-4,0.6055 0,0.9082 1.70117,0.28762 0.772577,2.58185 0.01172,4.77149 -0.003,0.28762 -0.002,0.78992 -0.01172,0.86328 0.0043,3.64808 0.0085,5.96225 -0.435547,7.29687 0.01114,0.10726 0.01772,0.21918 0.02734,0.32813 0.562794,1.39199 0.902343,3.1113 0.902343,5.16797 v 2.23632 3.90821 5.875 5.52929 c 0.0189,2.3141 0.002,4.62508 -0.08789,6.9375 -0.0307,0.80265 -0.07864,1.60343 -0.134766,2.4043 0.04393,0.93502 0.07635,1.871 0.101563,2.80664 0.0072,1.14599 -0.05315,2.29043 -0.173828,3.42969 -0.08742,0.72533 -0.166795,1.4513 -0.222657,2.17969 -0.06066,0.8095 -0.09599,1.62063 -0.128906,2.43164 -0.03477,0.87753 -0.0585,1.75483 -0.07813,2.63281 -0.01965,0.90852 -0.03362,1.81789 -0.04492,2.72656 -0.01096,0.94039 -0.01896,1.87989 -0.02539,2.82031 -0.0064,0.93884 -0.0099,1.87754 -0.01367,2.81641 -0.0034,0.85585 -0.006,1.71236 -0.0078,2.56836 0.03481,0.19277 0.07445,0.38506 0.107422,0.57812 0.162331,0.96843 0.256619,1.94603 0.339844,2.92383 0.07903,0.94602 0.127667,1.89355 0.169922,2.8418 0.0401,0.93226 0.06882,1.866 0.0918,2.79883 0.02192,0.93721 0.03579,1.87316 0.04883,2.81054 0.01247,0.94647 0.02016,1.8933 0.02734,2.83985 0.0072,0.94707 0.01147,1.89472 0.01563,2.8418 0.0038,0.94684 0.0075,1.89299 0.0098,2.83984 0.0021,0.93694 0.0026,1.8736 0.0039,2.81055 0.02457,1.06114 -0.03935,2.12145 -0.107422,3.17968 -0.05378,0.83838 -0.09297,1.67627 -0.126953,2.51563 -0.03439,0.87254 -0.05494,1.74614 -0.07422,2.61914 -0.01965,0.9058 -0.03212,1.81283 -0.04297,2.71875 -0.01096,0.91446 -0.01897,1.82769 -0.02539,2.74219 -0.006,0.92749 -0.0099,1.8557 -0.01367,2.7832 -0.0032,0.88588 -0.0055,1.77228 -0.0078,2.6582 -0.002,0.95978 -0.0027,1.91914 -0.0039,2.87891 -0.0012,1.09047 -0.0033,2.18101 -0.0039,3.27148 -5.97e-4,1.02233 3.63e-4,2.04409 0,3.06641 -3.4e-4,0.97791 -0.0018,1.95568 -0.002,2.93359 -2.19e-4,1.1381 1.06e-4,2.27597 0,3.41407 -1.02e-4,1.12335 6.8e-5,2.2477 0,3.37109 -6e-5,1.05018 3.4e-5,2.10021 0,3.15039 -3.8e-5,1.03816 1.9e-5,2.07512 0,3.11328 -1.9e-5,1.10332 1.1e-5,2.20723 0,3.31055 -1.1e-5,1.09481 8e-6,2.19034 0,3.28516 v 2.97851 c -4e-6,1.02153 0,2.04292 0,3.06445 -4e-6,1.21217 0,2.4226 0,3.63477 -4e-6,1.09391 0,2.18915 0,3.2832 7.719707,5.06756 13.658559,15.98503 13.65625,32.79883 v 0.9707 c -3.62e-4,3.59441 -6.3e-4,7.1888 0,10.78321 -0.002,3.66773 -0.02494,7.33621 0.01172,11.0039 0.0098,2.27963 0.130365,7.50675 -0.01563,9.85743 0.164145,1.17103 0.10298,2.36564 0.134765,3.54882 0.0672,2.49922 0.127399,4.99996 0.146485,7.5 0.124801,16.33217 -0.309883,32.66154 -0.8125,48.98438 -0.211464,7.97873 -0.193356,15.96631 -0.634766,23.93554 -0.9578,17.30204 -3.039652,37.93116 -5.558593,55.1211 -0.37028,2.52695 0.781572,7.02405 -1.734376,7.46289 -2.362729,0.41208 -2.746234,-9.09979 -2.613281,-6.70508 0.231041,4.1723 1.94572,8.12732 2.917969,12.19141 -0.35108,2.40279 -0.591201,4.82681 -1.054688,7.21094 -0.126802,0.65229 -0.09369,1.92287 -0.363281,2.45703 0.0788,2.016 0.177259,4.03109 0.19336,4.40039 0.238677,4.24683 0.570899,8.06524 0.205078,12.375 -0.411329,4.84599 -2.326828,9.30304 -3.6875,13.89453 -0.131414,-1.62157 -0.02306,-0.93328 -0.46875,2.06445 -0.731871,4.92371 -0.404547,9.93869 -0.404297,14.9082 6e-5,1.38218 0.002,2.76432 0.002,4.14649 0.002,3.38392 0.0042,6.76658 -0.01172,10.15039 -0.0091,4.645 0.149296,9.29104 -0.01172,13.93555 -0.02608,0.2434 -0.05133,0.48706 -0.07813,0.73047 0.103748,0.92464 0.217442,1.84819 0.294922,2.77539 0.155564,1.8554 0.260179,3.71496 0.390625,5.57226 -0.224314,3.17371 0.573861,6.5947 -0.673828,9.52149 -0.386963,0.90769 -0.668147,1.51901 -1.015625,2.32031 0.323603,1.2432 0.629667,2.52673 0.910156,3.86914 3.746801,17.9314 0.456279,0.51871 2.748047,17.82422 0.135761,1.02508 0.475711,2.013 0.712891,3.01953 0.250015,1.24819 0.5903,2.48113 0.75,3.74414 0.952648,7.53339 0.691468,7.71033 0.597656,15.25586 -0.577998,10.56529 -0.566881,21.1425 -0.376953,31.71678 0.02495,1.5666 0.01172,3.1325 0.01172,4.6992 A 561.42707,458.56992 0 0 0 211.97266,1025.4316 561.42707,458.56992 0 0 0 773.39844,566.86133 561.42707,458.56992 0 0 0 211.9707,108.28906 Z M 70.443359,124.00391 c 0.001,0.003 0.0028,0.007 0.0039,0.01 v -0.01 a 561.42707,458.56992 0 0 0 -0.0039,0 z m -0.154297,18.72851 c -0.0098,0.0265 -0.01752,0.0539 -0.02734,0.0801 -0.0049,0.0144 0.01771,-0.0279 0.02148,-0.043 0.006,-0.0223 0.0018,-0.0209 0.0059,-0.0371 z m 202.160158,57.84766 c -0.13886,0.12506 -0.29691,0.23777 -0.44727,0.35547 0.29602,-0.0993 0.57599,-0.20307 0.84961,-0.3086 -0.13421,-0.0147 -0.2682,-0.0313 -0.40234,-0.0469 z m 180.1582,68.60937 c -0.0483,0.47693 -0.10093,0.95513 -0.13867,1.38086 1.68907,0.71584 3.38232,1.42333 5.06055,2.16407 -1.63879,-1.18391 -3.28,-2.36501 -4.92188,-3.54493 z m 68.33008,31.44922 c 0.54127,0.69419 1.08247,1.38844 1.62695,2.08008 1.1469,0.30932 2.29016,0.63571 3.42969,0.9707 -0.14362,-0.0793 -0.28234,-0.16775 -0.42773,-0.24414 -1.49847,-0.83845 -2.95552,-1.74826 -4.40625,-2.66601 -0.076,-0.0449 -0.14783,-0.0945 -0.22266,-0.14063 z m 77.91797,44.24414 c 0,10e-4 0.004,0.0125 0.006,0.0176 -10e-4,-0.006 -0.002,-0.0113 -0.004,-0.0176 z m 0.006,0.0176 c 0.0131,0.0569 0.0242,0.10249 0.041,0.16797 -0.008,-0.0398 -0.0272,-0.11177 -0.0234,-0.11914 -0.006,-0.017 -0.0129,-0.0347 -0.0176,-0.0488 z m 32.15039,33.58203 c 0.90236,0.35033 1.67484,0.7429 2.38672,1.21094 -0.068,-0.0518 -0.10051,-0.0839 -0.17383,-0.13867 -0.64615,-0.48415 -2.78918,-1.29561 -2.21289,-1.07227 z m -468.19531,62.1543 c -0.0631,0.11187 -0.12081,0.23219 -0.18555,0.3418 -0.0714,0.12094 0.0227,0.55588 0.0508,0.41796 0.0489,-0.25247 0.09,-0.50657 0.13477,-0.75976 z m -509.2793,167.80469 c -0.17125,0.0189 -0.28951,0.0161 -0.44727,0.0312 a 561.42707,458.56992 0 0 0 0.29297,4.37109 c 0.0519,-1.46608 0.0994,-2.94421 0.1543,-4.40039 z m 728.61914,1.84961 c -0.18482,0.85651 -0.37229,1.71256 -0.56055,2.56836 0.22602,-0.28498 0.45386,-0.56847 0.67969,-0.85352 -0.0816,-0.56391 -0.11271,-1.1365 -0.11914,-1.71484 z M 526.2207,826.98438 c -1.07694,0.49204 -2.15772,0.97548 -3.24218,1.45117 -1.83712,0.79778 -3.67334,1.59719 -5.50977,2.39648 0.20447,-0.0401 0.40892,-0.0819 0.61328,-0.12305 0.23584,0.34772 0.50716,0.67589 0.76953,1.00977 1.53105,-1.00267 3.0626,-2.00437 4.60352,-2.99219 0.91676,-0.58813 1.84058,-1.16676 2.76562,-1.74218 z m -451.865231,2.83984 c -0.0091,0.008 -0.01735,0.0393 -0.02148,0.10547 -0.02305,0.36586 -0.0081,1.19152 0.01953,2.15625 0.085,-0.20334 0.154829,-0.40067 0.171875,-0.58008 0.04388,-0.46088 -0.108694,-1.72635 -0.169922,-1.68164 z m 442.425781,1.4707 c 0.0128,-0.0147 -0.0535,0.0214 -0.0703,0.043 -0.0151,0.0189 -0.0405,0.0377 -0.0586,0.0566 0.004,-0.003 0.006,-0.002 0.01,-0.006 0.0412,-0.0302 0.084,-0.0578 0.11914,-0.0938 z m -1.01367,0.27735 c -0.16139,0.0707 -0.32314,0.14026 -0.48438,0.21093 -1.42246,0.64146 -2.85444,1.27102 -4.23242,2.00391 0.24567,-0.0911 0.49055,-0.1843 0.73633,-0.27539 0.64252,-0.24983 1.28736,-0.4937 1.92969,-0.7461 0.68107,-0.40209 1.36064,-0.80852 2.05078,-1.19335 z m -614.175783,77.28906 c -0.106734,0.2502 -0.215456,0.49972 -0.322266,0.75 0.123591,0.0771 0.253299,0.15538 0.375,0.23437 -0.01587,-0.32655 -0.03845,-0.65914 -0.05273,-0.98437 z m 168.513672,2.36133 c -6.7e-5,0.005 0,0.0104 0,0.0156 5.83e-4,-0.005 0.0014,-0.0104 0.002,-0.0156 z m 0,0.0156 c -0.174516,1.56037 -0.359015,3.1199 -0.5,4.6836 -0.134476,1.49161 0.427646,-2.96903 0.503906,-4.46485 0.0039,-0.0727 -0.0039,-0.14573 -0.0039,-0.21875 z m -5.285157,4.89649 c 1.29e-4,4.8e-4 -1.25e-4,0.003 0,0.004 4.51e-4,1.3e-4 0.0011,-0.007 0.002,-0.004 z m 0,0.004 c -0.0021,-6e-4 -0.0021,0.0195 -0.0039,0.0195 0.02192,0.10961 0.04411,0.2189 0.06641,0.32813 -0.02991,-0.18919 -0.05054,-0.30131 -0.0625,-0.34766 z m 0.02539,0.48047 c 0.03175,0.4018 0.09181,1.18783 0.167969,2.05274 0.242041,0.38224 0.478365,0.76897 0.734375,1.14257 0.724777,1.05782 -0.171697,-1.2411 -0.902344,-3.19531 z m 220.109377,9.20703 c -0.0507,0.0187 -0.10211,0.0408 -0.15235,0.0605 0.0527,-0.0151 0.10548,-0.0357 0.15821,-0.0508 -10e-4,0 -0.005,-0.01 -0.006,-0.01 z m -87.79883,15.78906 c -0.23686,0.068 -0.47409,0.13352 -0.71094,0.20118 0.23792,0 0.47523,-0.011 0.71094,-0.0488 -0.001,-0.051 8.9e-4,-0.10132 0,-0.15235 z m -240.080078,7.16797 c -0.09301,0.0265 -0.186245,0.0501 -0.279297,0.0762 0.01965,0.10577 0.048,0.2102 0.06641,0.3164 0.07121,-0.13077 0.141685,-0.26188 0.212891,-0.39258 z" />
    <path
       id="rect5481"
       transform="scale(0.26458333)"
       style="fill:#000080;stroke-width:0.99999994"
       d="m 70.255859,344.12891 v 27.4414 c 0.799977,1.5194 1.302735,3.52405 1.302735,6.0293 v 1.9043 2.25 2.34179 c 0.0064,1.03612 -0.07659,2.06978 -0.136719,3.10352 -0.05654,0.95146 -0.0834,1.9045 -0.146484,2.85547 -0.07914,0.92957 -0.163962,1.85831 -0.228516,2.78906 -0.05881,0.87749 -0.100775,1.7561 -0.136719,2.63477 -0.03515,0.96 -0.05813,1.92048 -0.07813,2.88086 -0.01965,0.97844 -0.03294,1.95698 -0.04492,2.93554 -0.01134,0.89178 -0.01859,1.78397 -0.02539,2.67578 -0.0068,0.91813 -0.01027,1.83575 -0.01367,2.75391 0.0083,0.77987 -0.04205,1.55785 -0.08789,2.33594 -0.05978,1.01465 -0.203365,1.93363 -0.404297,2.77734 v 9.82422 c 0.07732,0.92519 0.07349,1.78529 0,2.58008 v 40.3457 c 0.297796,1.12268 0.472657,2.40373 0.472657,3.85938 v 2.23632 3.90821 5.875 5.52929 c 0.0189,2.3141 0.002,4.62508 -0.08789,6.9375 -0.03018,0.78903 -0.0825,1.57601 -0.138672,2.36329 2.58e-4,0.005 0.0017,0.0104 0.002,0.0156 0.04456,0.94345 0.07613,1.88794 0.101563,2.83203 0.0072,1.14599 -0.05315,2.29043 -0.173828,3.42969 -0.06901,0.57259 -0.124407,1.14643 -0.175782,1.7207 v 18.91992 c 0.03476,0.3457 0.07015,0.69097 0.09961,1.03711 0.07903,0.94602 0.127667,1.89355 0.169922,2.8418 0.0401,0.93226 0.06882,1.866 0.0918,2.79883 0.02192,0.93721 0.03579,1.87316 0.04883,2.81054 0.01247,0.94647 0.02016,1.8933 0.02734,2.83985 0.0072,0.94707 0.01147,1.89472 0.01563,2.8418 0.0038,0.94684 0.0075,1.89299 0.0098,2.83984 0.0021,0.93694 0.0026,1.8736 0.0039,2.81055 0.02457,1.06114 -0.03935,2.12145 -0.107422,3.17968 -0.05378,0.83838 -0.09297,1.67627 -0.126953,2.51563 -0.03439,0.87254 -0.05494,1.74614 -0.07422,2.61914 -0.01965,0.9058 -0.03212,1.81283 -0.04297,2.71875 -0.01096,0.91446 -0.01897,1.82769 -0.02539,2.74219 -0.006,0.92749 -0.0099,1.8557 -0.01367,2.7832 -0.0032,0.88588 -0.0055,1.77228 -0.0078,2.6582 -0.002,0.95978 -0.0027,1.91914 -0.0039,2.87891 -0.0012,1.09047 -0.0033,2.18101 -0.0039,3.27148 -5.97e-4,1.02233 3.63e-4,2.04409 0,3.06641 -3.4e-4,0.97791 -0.0018,1.95568 -0.002,2.93359 -2.19e-4,1.1381 1.06e-4,2.27597 0,3.41407 -1.02e-4,1.12335 6.8e-5,2.2477 0,3.37109 -6e-5,1.05018 3.4e-5,2.10021 0,3.15039 -3.8e-5,1.03816 1.9e-5,2.07512 0,3.11328 -1.9e-5,1.10332 1.1e-5,2.20723 0,3.31055 -1.1e-5,1.09481 8e-6,2.19034 0,3.28516 v 2.97851 c -4e-6,1.02153 0,2.04292 0,3.06445 -4e-6,1.21217 0,2.4226 0,3.63477 -4e-6,1.14988 0,2.30129 0,3.45117 v 3.16016 c -4e-6,1.00618 0,2.01338 0,3.01953 -0.0077,0.48509 -0.03439,0.96896 -0.05859,1.45312 v 413.18751 h 93.974611 v -80.08008 c -0.37569,-0.59891 -0.61128,-1.43857 -0.57227,-2.53516 0.002,-0.0491 0.004,-0.0989 0.004,-0.14844 0.0113,-0.3239 0.0264,-0.64894 0.0469,-0.97265 0.0227,-0.32467 0.0501,-0.64913 0.0879,-0.97266 0.003,-0.0302 0.042,-0.6993 0.0586,-0.37305 0.002,0.0302 0,-0.0636 0,-0.0957 0,-0.63228 0.0894,-1.17257 0.23633,-1.63477 -0.22545,-1.29437 -0.35068,-2.70509 -0.33594,-4.2539 0.004,-0.3922 0.002,-0.17842 0.004,-0.63672 0.008,-1.44881 0.014,-2.89904 0.0254,-4.34766 0.0113,-1.73631 0.0276,-3.47083 0.0469,-5.20703 0.0227,-1.66371 0.0473,-3.32866 0.082,-4.99219 0.0378,-1.69647 0.0807,-3.39216 0.14649,-5.08789 0.0443,-1.18548 0.10994,-2.37007 0.16992,-3.55468 V 344.12891 Z" />
    <path
       id="rect5483"
       style="fill:#000080;stroke-width:0.26458332"
       d="M 1.7643732,29.519047 V 48.013009 H 63.934738 c 0.448897,-0.792226 1.499896,-1.420773 3.151746,-1.456759 V 29.519047 Z"
       inkscape:connector-curvature="0" />
  </g>
</svg>
